<mxfile host="app.diagrams.net" modified="2023-06-18T11:35:04.760Z" agent="Mozilla/5.0 (Windows NT 10.0; Win64; x64) AppleWebKit/537.36 (KHTML, like Gecko) Chrome/114.0.0.0 Safari/537.36" etag="Q3czYZ_lW-m_oKKMHI2N" version="21.4.0" type="device">
  <diagram name="Page-1" id="q3ETHVzPrJ-8RFp9RQwR">
    <mxGraphModel dx="1105" dy="616" grid="1" gridSize="10" guides="1" tooltips="1" connect="1" arrows="1" fold="1" page="1" pageScale="1" pageWidth="827" pageHeight="1169" math="0" shadow="0">
      <root>
        <mxCell id="0" />
        <mxCell id="1" parent="0" />
        <mxCell id="_utIk04G8qo2afITZ7b--1" value="Igre&lt;br&gt;" style="shape=module;align=left;spacingLeft=20;align=center;verticalAlign=top;whiteSpace=wrap;html=1;" vertex="1" parent="1">
          <mxGeometry x="100" y="90" width="100" height="50" as="geometry" />
        </mxCell>
        <mxCell id="_utIk04G8qo2afITZ7b--2" value="" style="rounded=0;orthogonalLoop=1;jettySize=auto;html=1;endArrow=none;endFill=0;sketch=0;sourcePerimeterSpacing=0;targetPerimeterSpacing=0;exitX=0.5;exitY=1;exitDx=0;exitDy=0;" edge="1" target="_utIk04G8qo2afITZ7b--4" parent="1" source="_utIk04G8qo2afITZ7b--1">
          <mxGeometry relative="1" as="geometry">
            <mxPoint x="390" y="305" as="sourcePoint" />
          </mxGeometry>
        </mxCell>
        <mxCell id="_utIk04G8qo2afITZ7b--3" value="" style="rounded=0;orthogonalLoop=1;jettySize=auto;html=1;endArrow=halfCircle;endFill=0;entryX=0.5;entryY=0.5;endSize=6;strokeWidth=1;sketch=0;exitX=0.5;exitY=0;exitDx=0;exitDy=0;" edge="1" target="_utIk04G8qo2afITZ7b--4" parent="1" source="_utIk04G8qo2afITZ7b--5">
          <mxGeometry relative="1" as="geometry">
            <mxPoint x="150" y="280" as="sourcePoint" />
          </mxGeometry>
        </mxCell>
        <mxCell id="_utIk04G8qo2afITZ7b--4" value="" style="ellipse;whiteSpace=wrap;html=1;align=center;aspect=fixed;resizable=0;points=[];outlineConnect=0;sketch=0;" vertex="1" parent="1">
          <mxGeometry x="145" y="210" width="10" height="10" as="geometry" />
        </mxCell>
        <mxCell id="_utIk04G8qo2afITZ7b--5" value="Narudžba" style="shape=module;align=left;spacingLeft=20;align=center;verticalAlign=top;whiteSpace=wrap;html=1;" vertex="1" parent="1">
          <mxGeometry x="100" y="290" width="100" height="50" as="geometry" />
        </mxCell>
        <mxCell id="_utIk04G8qo2afITZ7b--6" value="Podaci o igrama" style="text;html=1;strokeColor=none;fillColor=none;align=center;verticalAlign=middle;whiteSpace=wrap;rounded=0;" vertex="1" parent="1">
          <mxGeometry x="160" y="200" width="60" height="30" as="geometry" />
        </mxCell>
        <mxCell id="_utIk04G8qo2afITZ7b--7" value="Korisnik" style="shape=module;align=left;spacingLeft=20;align=center;verticalAlign=top;whiteSpace=wrap;html=1;" vertex="1" parent="1">
          <mxGeometry x="360" y="150" width="100" height="50" as="geometry" />
        </mxCell>
        <mxCell id="_utIk04G8qo2afITZ7b--8" value="" style="rounded=0;orthogonalLoop=1;jettySize=auto;html=1;endArrow=none;endFill=0;sketch=0;sourcePerimeterSpacing=0;targetPerimeterSpacing=0;exitX=0.5;exitY=1;exitDx=0;exitDy=0;" edge="1" target="_utIk04G8qo2afITZ7b--10" parent="1" source="_utIk04G8qo2afITZ7b--7">
          <mxGeometry relative="1" as="geometry">
            <mxPoint x="390" y="305" as="sourcePoint" />
          </mxGeometry>
        </mxCell>
        <mxCell id="_utIk04G8qo2afITZ7b--9" value="" style="rounded=0;orthogonalLoop=1;jettySize=auto;html=1;endArrow=halfCircle;endFill=0;entryX=0.5;entryY=0.5;endSize=6;strokeWidth=1;sketch=0;exitX=1;exitY=0.5;exitDx=0;exitDy=0;" edge="1" target="_utIk04G8qo2afITZ7b--10" parent="1" source="_utIk04G8qo2afITZ7b--5">
          <mxGeometry relative="1" as="geometry">
            <mxPoint x="430" y="305" as="sourcePoint" />
          </mxGeometry>
        </mxCell>
        <mxCell id="_utIk04G8qo2afITZ7b--10" value="" style="ellipse;whiteSpace=wrap;html=1;align=center;aspect=fixed;resizable=0;points=[];outlineConnect=0;sketch=0;" vertex="1" parent="1">
          <mxGeometry x="310" y="250" width="10" height="10" as="geometry" />
        </mxCell>
        <mxCell id="_utIk04G8qo2afITZ7b--11" value="Podaci o korisniku" style="text;html=1;strokeColor=none;fillColor=none;align=center;verticalAlign=middle;whiteSpace=wrap;rounded=0;" vertex="1" parent="1">
          <mxGeometry x="330" y="250" width="60" height="30" as="geometry" />
        </mxCell>
        <mxCell id="_utIk04G8qo2afITZ7b--12" value="Korisnički račun" style="shape=module;align=left;spacingLeft=20;align=center;verticalAlign=top;whiteSpace=wrap;html=1;" vertex="1" parent="1">
          <mxGeometry x="360" y="340" width="100" height="50" as="geometry" />
        </mxCell>
        <mxCell id="_utIk04G8qo2afITZ7b--13" value="" style="endArrow=none;html=1;rounded=0;entryX=0.5;entryY=1;entryDx=0;entryDy=0;exitX=0.5;exitY=0;exitDx=0;exitDy=0;" edge="1" parent="1" source="_utIk04G8qo2afITZ7b--12" target="_utIk04G8qo2afITZ7b--7">
          <mxGeometry width="50" height="50" relative="1" as="geometry">
            <mxPoint x="390" y="330" as="sourcePoint" />
            <mxPoint x="440" y="280" as="targetPoint" />
          </mxGeometry>
        </mxCell>
        <mxCell id="_utIk04G8qo2afITZ7b--14" value="" style="endArrow=none;html=1;rounded=0;exitX=0.5;exitY=1;exitDx=0;exitDy=0;entryX=1;entryY=0.5;entryDx=0;entryDy=0;entryPerimeter=0;" edge="1" parent="1" source="_utIk04G8qo2afITZ7b--5" target="_utIk04G8qo2afITZ7b--15">
          <mxGeometry width="50" height="50" relative="1" as="geometry">
            <mxPoint x="400" y="320" as="sourcePoint" />
            <mxPoint x="150" y="370" as="targetPoint" />
          </mxGeometry>
        </mxCell>
        <mxCell id="_utIk04G8qo2afITZ7b--15" value="" style="shape=requiredInterface;html=1;verticalLabelPosition=bottom;sketch=0;rotation=-90;" vertex="1" parent="1">
          <mxGeometry x="145" y="355" width="10" height="20" as="geometry" />
        </mxCell>
        <mxCell id="_utIk04G8qo2afITZ7b--17" value="" style="endArrow=none;html=1;rounded=0;exitX=0.068;exitY=0.992;exitDx=0;exitDy=0;exitPerimeter=0;" edge="1" parent="1" source="_utIk04G8qo2afITZ7b--15">
          <mxGeometry width="50" height="50" relative="1" as="geometry">
            <mxPoint x="210" y="390" as="sourcePoint" />
            <mxPoint x="270" y="370" as="targetPoint" />
          </mxGeometry>
        </mxCell>
        <mxCell id="_utIk04G8qo2afITZ7b--22" value="" style="ellipse;whiteSpace=wrap;html=1;aspect=fixed;" vertex="1" parent="1">
          <mxGeometry x="270" y="360" width="20" height="20" as="geometry" />
        </mxCell>
        <mxCell id="_utIk04G8qo2afITZ7b--23" value="" style="endArrow=none;html=1;rounded=0;exitX=1;exitY=0.5;exitDx=0;exitDy=0;entryX=0.198;entryY=0.592;entryDx=0;entryDy=0;entryPerimeter=0;" edge="1" parent="1" source="_utIk04G8qo2afITZ7b--22" target="_utIk04G8qo2afITZ7b--12">
          <mxGeometry width="50" height="50" relative="1" as="geometry">
            <mxPoint x="250" y="350" as="sourcePoint" />
            <mxPoint x="300" y="300" as="targetPoint" />
          </mxGeometry>
        </mxCell>
        <mxCell id="_utIk04G8qo2afITZ7b--24" value="Podaci o računu" style="text;html=1;strokeColor=none;fillColor=none;align=center;verticalAlign=middle;whiteSpace=wrap;rounded=0;" vertex="1" parent="1">
          <mxGeometry x="285" y="340" width="60" height="30" as="geometry" />
        </mxCell>
        <mxCell id="_utIk04G8qo2afITZ7b--25" value="Plaćanje" style="text;html=1;strokeColor=none;fillColor=none;align=center;verticalAlign=middle;whiteSpace=wrap;rounded=0;" vertex="1" parent="1">
          <mxGeometry x="85" y="350" width="60" height="30" as="geometry" />
        </mxCell>
      </root>
    </mxGraphModel>
  </diagram>
</mxfile>
